<svg xmlns="http://www.w3.org/2000/svg" id="Layer_1" data-name="Layer 1" viewBox="0 0 55 50"><defs><style>.cls-1{fill:#d3a669;}.cls-2{fill:none;}</style></defs><title>vipshop</title><path class="cls-1" d="M54.81,20l-1.62-.37L43,17.24l-8.66-2-6.67-1.57a.4.4,0,0,0-.19,0l-12,2.82L3.17,19.34.24,20H.18v-.11c0-.81,0-1.62,0-2.43,0-.09,0-.12.12-.15l13.36-4.05L27.43,9.11a.44.44,0,0,1,.28,0l12.41,3.77,14.62,4.44h.07Z"></path><path class="cls-1" d="M54.81,14.7l-9.25-3.43L27.63,4.62a.3.3,0,0,0-.21,0L10.76,10.81.31,14.68c-.13.06-.13.06-.13-.09,0-.79,0-1.59,0-2.38,0-.1,0-.14.13-.18L12.4,6.72,27.46.09a.22.22,0,0,1,.21,0l19.9,8.76L54.69,12l.12,0Z"></path><path class="cls-1" d="M34.48,49.85c0-.05,0-.11,0-.16V27.18c0-.19,0-.16.16-.16,1.56,0,3.11,0,4.67,0a12.16,12.16,0,0,1,7.09,2.31A7.18,7.18,0,0,1,48.66,32a4.94,4.94,0,0,1,.49,2.78s0,0,0,0,0,0,0,0a8.27,8.27,0,0,0-2.73-2.15,14.74,14.74,0,0,0-4.52-1.44,16.9,16.9,0,0,0-2.56-.22c-.17,0-.17,0-.17.17V49.85Z"></path><path class="cls-1" d="M26.66,49.85c0-.05,0-.11,0-.16V31.2a.29.29,0,0,1,.12-.26,4.56,4.56,0,0,1,2.29-1.11,3.11,3.11,0,0,1,2.13.37.19.19,0,0,1,.1.18V49.85Z"></path><path class="cls-1" d="M.34,22.64l1-.16,3.64-.61,4.27-.71,3.93-.65,4.26-.71,4.05-.67,4.27-.71,1.75-.29a1.34,1.34,0,0,1,.49.05l4.41.73,4.37.73,4.06.68,4.37.73,4,.68,4.1.69c.44.07.88.14,1.31.23H.34Z"></path><path class="cls-1" d="M16,41.75c-1.38,2.68-2.77,5.35-4.09,8.08l-.52-1L7.27,40.69q-1.72-3.4-3.46-6.79L.38,27.15C.3,27,.3,27,.47,27H4.82a.17.17,0,0,1,.18.11l3.73,7.35,3.15,6.2a3.89,3.89,0,0,0,.83,1.14,2.29,2.29,0,0,0,2.78.28A6,6,0,0,0,16,41.75Z"></path><path class="cls-1" d="M21.21,27H23.4c.1,0,.13,0,.07.12-1,1.82-1.93,3.69-2.87,5.55l-3.41,6.79-.51,1a.61.61,0,0,1-.12.16,3.14,3.14,0,0,1-1.52.84,2,2,0,0,1-2.13-1,3.08,3.08,0,0,1-.36-.88.23.23,0,0,1,0-.18q2.47-4.86,5-9.72l1.32-2.6A.17.17,0,0,1,19,27Z"></path><path class="cls-1" d="M40.26,26c.75,0,1.5.1,2.25.2a24.2,24.2,0,0,1,4.21,1,19.2,19.2,0,0,1,4.44,2,9.67,9.67,0,0,1,2.54,2.23,4.8,4.8,0,0,1,1,2.09,4.12,4.12,0,0,1-.5,2.79,7,7,0,0,1-2,2.26,14.82,14.82,0,0,1-3.94,2.06,22,22,0,0,1-4.59,1.11,23.47,23.47,0,0,1-3,.22c-.12,0-.15,0-.15-.14a4.34,4.34,0,0,0,0-.51c0-.09,0-.11.12-.11A13.3,13.3,0,0,0,43.07,41a10.18,10.18,0,0,0,4.57-2.07,6.52,6.52,0,0,0,2.28-3.52,5.76,5.76,0,0,0-1-5,9,9,0,0,0-3.14-2.6,12.8,12.8,0,0,0-4.68-1.39,11.69,11.69,0,0,0-1.32-.08c-.12,0-.12,0-.13-.13s0-.12.13-.12S40.09,26,40.26,26Z"></path><path class="cls-1" d="M26.66,30.12a.25.25,0,0,1,0-.12V27.15c0-.11,0-.15.14-.15,1.46,0,2.91,0,4.36,0,.1,0,.14,0,.14.13V29s0,.06,0,.1A4.29,4.29,0,0,0,26.66,30.12Z"></path><rect class="cls-2" width="55" height="50"></rect></svg>